HIERARCHY
ROOT Hips
{
  OFFSET 74.0196 97.4445 -31.1285
  CHANNELS 6 Xposition Yposition Zposition Zrotation Xrotation Yrotation
  JOINT RightUpLeg
  {
    OFFSET -8.9458 -8.66707 0.101652
    CHANNELS 3 Zrotation Xrotation Yrotation
    JOINT RightLeg
    {
      OFFSET -2.94875e-013 -44.4227 1.3727
      CHANNELS 3 Zrotation Xrotation Yrotation
      JOINT RightFoot
      {
        OFFSET 0.253549 -42.0924 -1.46059
        CHANNELS 3 Zrotation Xrotation Yrotation
        JOINT RightToes
        {
          OFFSET 0.04 -4.41509 8.4991
          CHANNELS 3 Zrotation Xrotation Yrotation
          End Site
          {
            OFFSET -0.08 -0.137448 9.77979
          }
        }
      }
    }
  }
  JOINT Spine
  {
    OFFSET -5.68434e-014 11.8905 -6.39488e-014
    CHANNELS 3 Zrotation Xrotation Yrotation
    JOINT Spine1
    {
      OFFSET 5.68434e-014 25.6574 0.127663
      CHANNELS 3 Zrotation Xrotation Yrotation
      JOINT HEad
      {
        OFFSET 4.26326e-014 8.73416 0.011341
        CHANNELS 3 Zrotation Xrotation Yrotation
        End Site
        {
          OFFSET -0.29 12.7742 2.51395
        }
      }
      JOINT LeftShoulder1
      {
        OFFSET 8.99 -0.362252 -0.22
        CHANNELS 3 Zrotation Xrotation Yrotation
        JOINT LeftArm
        {
          OFFSET 10.2827 -0.00338 0.322123
          CHANNELS 3 Zrotation Xrotation Yrotation
          JOINT LeftForeArm
          {
            OFFSET 32.7669 0.099144 -1.42434
            CHANNELS 3 Zrotation Xrotation Yrotation
            JOINT LeftHand
            {
              OFFSET 27.5643 0.085362 1.02216
              CHANNELS 3 Zrotation Xrotation Yrotation
              End Site
              {
                OFFSET 16.7443 -0.6 1.50291
              }
            }
          }
        }
      }
      JOINT RightShoulder
      {
        OFFSET -8.99 -0.362252 -0.22
        CHANNELS 3 Zrotation Xrotation Yrotation
        JOINT RightArm
        {
          OFFSET -10.2827 -0.00338 0.322123
          CHANNELS 3 Zrotation Xrotation Yrotation
          JOINT RightForeArm
          {
            OFFSET -32.8971 0.099144 -1.42434
            CHANNELS 3 Zrotation Xrotation Yrotation
            JOINT RightHand
            {
              OFFSET -27.4921 0.085362 1.02216
              CHANNELS 3 Zrotation Xrotation Yrotation
              End Site
              {
                OFFSET -16.6312 -0.6 1.50291
              }
            }
          }
        }
      }
    }
  }
  JOINT LeftUpLeg
  {
    OFFSET 8.9458 -8.66707 0.101652
    CHANNELS 3 Zrotation Xrotation Yrotation
    JOINT LeftLeg
    {
      OFFSET 7.10543e-014 -44.4227 1.3727
      CHANNELS 3 Zrotation Xrotation Yrotation
      JOINT LeftFoot
      {
        OFFSET -0.253549 -42.0924 -1.46059
        CHANNELS 3 Zrotation Xrotation Yrotation
        JOINT LeftToes
        {
          OFFSET -0.04 -4.41509 8.4991
          CHANNELS 3 Zrotation Xrotation Yrotation
          End Site
          {
            OFFSET 0.08 -0.047448 9.77979
          }
        }
      }
    }
  }
}
MOTION
Frames:	9
Frame Time:	0.0166667
0.00000 96.00000 0.00000 0.00000 0.00000 0.00000 0.00000 0.00000 0.00000 0.00000 0.00000 0.00000 0.00000 0.00000 0.00000 0.00000 0.00000 0.00000 0.00000 0.00000 0.00000 0.00000 0.00000 0.00000 0.00000 0.00000 0.00000 0.00000 0.00000 0.00000 0.00000 0.00000 0.00000 0.00000 0.00000 0.00000 0.00000 0.00000 0.00000 0.00000 0.00000 0.00000 0.00000 0.00000 0.00000 0.00000 0.00000 0.00000 0.00000 0.00000 0.00000 0.00000 0.00000 0.00000 0.00000 0.00000 0.00000 0.00000 0.00000 0.00000 0.00000 0.00000 0.00000 
126.921 91.443 16.303 0.852417 6.04628 -133.814 -8.22646 6.53136 -0.0696873 10.36 36.7552 -11.3626 0.492568 -12.4783 -0.182789 -28.6306 -39.2538 -12.8685 3.07504 7.78909 3.13705 3.77747 15.9608 6.57604 -4.82258 -4.05341 13.1758 -5.03302e-021 -3.88251e-019 1.21329e-020 -60.7614 -47.0538 7.72343 -2.96639 35.1691 -113.828 28.7632 1.99355 -26.7073 18.2998 4.03109 16.9377 68.9175 -16.1977 42.9217 -19.0981 32.3092 142.209 -12.3963 14.4036 -47.2705 28.8716 -20.9812 -0.617158 2.99271 25.4301 -10.2156 -13.5033 1.4743 1.05615 0.762533 -0.715402 5.92645 
127.762 91.6666 15.9222 0.758641 5.84683 -133.152 -7.60795 6.57615 -0.312498 10.2327 36.3639 -11.845 0.313228 -12.4276 -0.190248 -28.7974 -39.489 -12.7849 2.96276 7.87867 3.22319 3.682 16.1209 6.75448 -4.99753 -4.37044 12.8493 -5.03302e-021 -3.88251e-019 1.21329e-020 -61.5694 -46.3608 6.38336 -2.12888 34.7076 -114.836 29.0124 2.02757 -26.3112 18.2284 4.01278 16.909 69.249 -16.7162 42.9162 -19.1652 32.4202 142.542 -12.4862 14.4308 -47.2053 28.42 -22.0727 -0.24591 2.7457 25.9334 -8.44914 -13.1959 2.57721 1.15136 0.0388627 0.139935 5.76953 
128.423 92.1005 15.4964 0.707068 5.4606 -132.469 -7.05058 6.53239 -0.411188 10.0042 35.8783 -12.1682 0.687717 -12.7649 -0.174619 -27.7593 -38.6012 -12.0433 2.73755 7.89411 3.3498 3.44423 16.1126 7.01416 -5.28721 -4.56944 12.5465 -5.03302e-021 -3.88251e-019 1.21329e-020 -62.3177 -45.735 4.90559 -1.04331 34.025 -116.182 29.3822 2.05547 -25.8169 18.1604 4.00885 16.9458 69.4967 -17.0141 42.6698 -19.162 32.3701 142.726 -12.4215 14.4031 -47.1815 27.7515 -23.0915 0.226571 2.16631 26.4317 -6.66449 -13.0978 2.98394 1.18638 -0.879117 1.23237 5.66314 
128.894 92.7131 15.036 0.713789 4.92186 -131.776 -6.60593 6.43953 -0.384776 9.75994 35.2844 -12.2814 1.64063 -13.5263 -0.125438 -25.5596 -36.5204 -10.7007 2.43047 7.83255 3.51106 3.0938 15.9361 7.33895 -5.64757 -4.62095 12.23 -5.03302e-021 -3.88251e-019 1.21329e-020 -63.0062 -45.2213 3.351 0.0316921 33.236 -117.644 29.7763 2.08246 -25.3126 18.0941 4.01702 17.0392 69.6466 -17.1144 42.2149 -19.0676 32.2137 142.756 -12.2442 14.3343 -47.1761 26.8539 -23.9973 0.848315 1.39479 26.938 -5.17799 -13.2569 2.68464 1.16861 -1.7879 2.31698 5.60026 
129.183 93.4537 14.5574 0.802834 4.27134 -131.092 -6.32327 6.30913 -0.273312 9.59509 34.5866 -12.2061 3.0879 -14.5907 -0.027766 -22.4788 -33.2814 -9.06988 2.08225 7.69053 3.70881 2.66805 15.5947 7.72498 -6.03017 -4.52797 11.8493 -5.03302e-021 -3.88251e-019 1.21329e-020 -63.6669 -44.8456 1.72022 0.859117 32.4887 -119.007 30.1068 2.10567 -24.897 18.0227 4.03431 17.1809 69.7013 -17.0847 41.5981 -18.8794 32.0149 142.67 -12.0337 14.2498 -47.1445 25.7184 -24.7699 1.66506 0.633034 27.4474 -4.23116 -13.6446 1.80991 1.10541 -2.52271 3.19568 5.5284 
129.308 94.2632 14.0779 0.991063 3.5484 -130.444 -6.23846 6.12615 -0.120858 9.59402 33.8158 -12.023 4.84878 -15.7345 0.123012 -18.9114 -29.0682 -7.57149 1.71787 7.47009 3.94912 2.20725 15.0968 8.17808 -6.39534 -4.32142 11.3599 -5.03302e-021 -3.88251e-019 1.21329e-020 -64.3444 -44.6118 -0.0200215 1.27757 31.9251 -120.114 30.3088 2.1148 -24.665 17.9438 4.05946 17.3675 69.6612 -17.0123 40.8708 -18.6158 31.8235 142.535 -11.886 14.181 -47.0343 24.3445 -25.3979 2.68515 0.0787206 27.9333 -3.92996 -14.1358 0.541286 0.997889 -3.02895 3.80476 5.39954 
129.317 95.0645 13.6169 1.28505 2.79439 -129.841 -6.34726 5.81361 0.0254261 9.8183 33.1202 -11.8473 6.69685 -16.7564 0.3111 -15.2344 -24.2371 -6.55084 1.34215 7.18394 4.22232 1.73694 14.4648 8.70499 -6.71824 -4.05122 10.7396 -5.03302e-021 -3.88251e-019 1.21329e-020 -65.0801 -44.5085 -1.91303 1.22287 31.6426 -120.881 30.3494 2.09691 -24.6885 17.8646 4.09432 17.6024 69.5175 -16.9802 40.0878 -18.3142 31.6635 142.421 -11.8889 14.1568 -46.8025 22.7675 -25.9186 3.86359 -0.132186 28.4045 -4.25481 -14.5433 -0.987153 0.842636 -3.36742 4.21736 5.21685 
129.231 95.8205 13.1776 1.67343 2.04691 -129.32 -6.62708 5.36882 0.137808 10.2691 32.5267 -11.7363 8.40543 -17.4389 0.497645 -11.7413 -19.2743 -6.16236 0.964284 6.84639 4.5367 1.28505 13.7294 9.30261 -6.98781 -3.77809 9.99614 -5.03302e-021 -3.88251e-019 1.21329e-020 -65.905 -44.5201 -4.00279 0.72334 31.6731 -121.299 30.2333 2.0422 -24.9965 17.8007 4.14344 17.8943 69.2575 -17.052 39.3115 -18.0245 31.5365 142.387 -12.099 14.1957 -46.4317 21.0396 -26.2872 5.09857 0.0500484 28.7592 -5.05207 -14.6796 -2.67271 0.644377 -3.65829 4.57497 5.03918 
